<svg width="270" height="41" viewBox="0 0 270 41" fill="none" xmlns="http://www.w3.org/2000/svg">
<path d="M171.591 39.8736C169.578 39.679 167.71 39.0873 165.985 38.0988C164.259 37.1104 162.726 35.854 161.384 34.3307C160.649 33.5202 160.019 32.6288 159.491 31.6561C158.964 30.6837 158.509 29.6788 158.125 28.6416C157.423 26.6968 157.087 24.7276 157.119 22.7337C157.151 20.7403 157.471 18.8359 158.078 17.0205C158.685 15.2055 159.555 13.5198 160.689 11.9638C161.824 10.4078 163.157 9.10307 164.691 8.04974C166.224 6.99604 167.925 6.2424 169.794 5.78846C171.663 5.33488 173.652 5.27003 175.76 5.59428C178.252 5.983 180.504 6.97185 182.517 8.56009C184.53 10.1484 186.127 12.0608 187.309 14.2976C187.373 14.395 187.485 14.6218 187.645 14.9783C187.804 15.3351 187.916 15.5942 187.98 15.7565C187.98 15.8213 188.012 15.9184 188.076 16.0481C188.14 16.1778 188.172 16.2753 188.172 16.3398C188.012 16.4046 187.836 16.5021 187.645 16.6318C187.453 16.7611 187.277 16.7937 187.118 16.7288C186.606 15.4971 186.023 14.3705 185.368 13.3494C184.713 12.3283 183.907 11.3479 182.949 10.4078C181.159 8.7224 179.091 7.59579 176.743 7.02864C174.395 6.46113 172.038 6.46919 169.675 7.05283C167.758 7.53901 165.993 8.4304 164.379 9.72701C162.766 11.0236 161.48 12.5474 160.522 14.2976C159.531 16.113 158.884 17.9932 158.581 19.9379C158.277 21.883 158.293 23.7794 158.629 25.627C158.964 27.4747 159.579 29.2168 160.474 30.8541C161.368 32.4911 162.502 33.909 163.876 35.1085C165.25 36.308 166.831 37.2397 168.62 37.9043C170.409 38.5689 172.358 38.8363 174.466 38.7066C175.904 38.6418 177.294 38.3176 178.635 37.7343C179.977 37.1506 181.215 36.3809 182.349 35.4247C183.483 34.4684 184.466 33.3744 185.297 32.1427C186.127 30.9105 186.766 29.6139 187.213 28.2525L188.268 28.6416V28.739C188.012 29.5168 187.7 30.2705 187.333 30.9999C186.966 31.729 186.558 32.4343 186.111 33.115C185.28 34.3142 184.322 35.3679 183.236 36.2754C182.15 37.1833 180.976 37.9204 179.714 38.4879C178.452 39.0551 177.134 39.4603 175.76 39.7036C174.387 39.9465 172.997 40.0033 171.591 39.8736Z" fill="#AB8E54"/>
<path d="M194.879 5.2041V38.6084H209.303V39.7753H193.633V5.2041H194.879Z" fill="#AB8E54"/>
<path d="M223.118 40.3678C221.904 40.1732 220.746 39.7922 219.644 39.225C218.541 38.6579 217.535 37.961 216.625 37.1341C215.714 36.3076 214.931 35.3675 214.277 34.3141C213.622 33.2604 213.135 32.1503 212.815 30.9834C212.783 30.9512 212.751 30.8537 212.719 30.6918C212.687 30.5295 212.655 30.3514 212.623 30.1569C212.591 29.9623 212.559 29.7758 212.527 29.5978C212.496 29.4193 212.464 29.2977 212.432 29.2329C212.432 29.1358 212.416 28.998 212.384 28.8196C212.352 28.6415 212.336 28.5199 212.336 28.4551V5.50488H213.486V27.7743C213.486 28.8441 213.678 29.9462 214.061 31.0809C214.444 32.2152 214.956 33.2201 215.594 34.0954C216.425 35.2623 217.391 36.2347 218.493 37.0125C219.596 37.7907 220.762 38.3743 221.992 38.763C223.222 39.1521 224.484 39.3386 225.777 39.3221C227.071 39.306 228.325 39.0873 229.539 38.6659C230.753 38.2446 231.895 37.6123 232.965 36.7696C234.036 35.9269 234.954 34.8732 235.721 33.6092C236.328 32.5716 236.775 31.5344 237.063 30.4972C237.127 30.2378 237.223 29.8652 237.35 29.3787C237.478 28.8925 237.542 28.617 237.542 28.5521V5.50488H238.692V27.9689C238.692 28.617 238.612 29.2655 238.452 29.9136C238.293 30.5621 238.117 31.178 237.925 31.7612C237.382 33.3172 236.599 34.6867 235.577 35.8701C234.555 37.0532 233.381 38.0255 232.055 38.7876C230.729 39.5493 229.299 40.0677 227.766 40.3432C226.233 40.6191 224.683 40.6272 223.118 40.3678Z" fill="#AB8E54"/>
<path d="M252.683 5.2041C253.45 5.2041 254.24 5.29312 255.055 5.47154C255.87 5.6496 256.644 5.88482 257.379 6.17646C258.305 6.53294 259.176 6.96233 259.991 7.465C260.805 7.9673 261.532 8.60773 262.171 9.38554C262.65 9.96881 262.994 10.6092 263.201 11.3061C263.409 12.0029 263.513 12.7163 263.513 13.4457C263.513 14.1752 263.433 14.9123 263.273 15.6579C263.113 16.4035 262.922 17.1168 262.698 17.7975C262.698 17.8624 262.674 17.9433 262.626 18.0404C262.578 18.1379 262.554 18.2189 262.554 18.2837C262.554 18.316 262.546 18.3405 262.53 18.3566C262.514 18.3727 262.507 18.3969 262.507 18.4295L262.458 18.4783H261.212V18.3808C261.692 17.0842 262.019 15.9092 262.195 14.8555C262.371 13.8022 262.331 12.8379 262.075 11.9626C261.819 11.0874 261.348 10.2934 260.661 9.58009C259.975 8.86676 259.008 8.21863 257.762 7.63499C256.836 7.18142 255.853 6.85718 254.815 6.66263C253.777 6.46809 252.747 6.371 251.724 6.371H245.734V39.8724H244.584V5.2041H252.683ZM266.915 36.955C267.331 35.5935 267.626 34.1833 267.802 32.7248C267.977 31.2662 267.929 29.8641 267.658 28.5188C267.386 27.1735 266.851 25.9501 266.053 24.8477C265.254 23.7456 264.104 22.8704 262.602 22.2223C261.388 21.7035 260.11 21.3873 258.769 21.2741C257.427 21.1605 256.101 21.1363 254.791 21.2012V20.0339C256.484 19.9694 258.162 20.0423 259.823 20.253C261.484 20.4636 263.05 20.9905 264.519 21.8332C265.988 22.6758 267.067 23.7779 267.754 25.1397C268.44 26.5012 268.848 27.9678 268.976 29.5399C269.103 31.112 269.016 32.7087 268.712 34.3292C268.409 35.95 268.033 37.4411 267.586 38.8026C267.522 38.9971 267.442 39.1917 267.346 39.3862C267.283 39.5159 267.234 39.6456 267.203 39.7753H265.957C265.988 39.6779 266.061 39.4914 266.172 39.2159C266.284 38.9404 266.388 38.6568 266.484 38.3651C266.579 38.0731 266.668 37.7896 266.747 37.5141C266.827 37.2385 266.883 37.0524 266.915 36.955Z" fill="#AB8E54"/>
<path d="M51.4297 3.44922V36.7194H45.1559V3.44922H51.4297Z" fill="white"/>
<path d="M56.4023 24.3697C56.4023 22.2477 56.9136 20.1952 57.9442 18.2128C58.9747 16.2222 60.4324 14.712 62.3176 13.6668C64.2028 12.6211 66.3017 12.0947 68.6296 12.0947C72.2249 12.0947 75.1633 13.2795 77.4605 15.6492C79.7581 18.027 80.9027 21.0163 80.9027 24.6405C80.9027 28.2962 79.7429 31.3243 77.4302 33.7247C75.1099 36.1256 72.1942 37.3258 68.6755 37.3258C66.5003 37.3258 64.4245 36.8228 62.4475 35.8237C60.4782 34.8246 58.9747 33.3609 57.9442 31.4246C56.9136 29.4964 56.4023 27.1421 56.4023 24.3697ZM62.8595 24.7104C62.8595 27.1032 63.4167 28.9388 64.531 30.209C65.6532 31.4866 67.0268 32.1219 68.6679 32.1219C70.3014 32.1219 71.6749 31.4866 72.7816 30.209C73.8887 28.9388 74.4459 27.0878 74.4459 24.6639C74.4459 22.3019 73.8887 20.4817 72.7816 19.2119C71.6749 17.934 70.3014 17.2987 68.6679 17.2987C67.0268 17.2987 65.6532 17.934 64.531 19.2119C63.4167 20.4817 62.8595 22.3173 62.8595 24.7104Z" fill="white"/>
<path d="M85.5703 36.7233V3.45312H91.8441V15.457C93.7831 13.2188 96.0727 12.0959 98.7288 12.0959C101.621 12.0959 104.01 13.1569 105.903 15.2866C107.796 17.4164 108.743 20.4753 108.743 24.4636C108.743 28.5839 107.781 31.7589 105.85 33.9894C103.919 36.2122 101.568 37.3275 98.8129 37.3275C97.4542 37.3275 96.1185 36.971 94.7981 36.2664C93.4776 35.5538 92.3402 34.5316 91.3862 33.1841V36.7233H85.5703ZM91.7527 24.2006C91.7527 26.7018 92.142 28.5605 92.9204 29.7534C94.012 31.457 95.4545 32.3088 97.2635 32.3088C98.6526 32.3088 99.8355 31.7047 100.82 30.4967C101.797 29.2884 102.285 27.3833 102.285 24.789C102.285 22.0243 101.789 20.0338 100.805 18.8101C99.8203 17.5868 98.5609 16.9749 97.0191 16.9749C95.5079 16.9749 94.2561 17.571 93.2562 18.7639C92.2564 19.9565 91.7527 21.7686 91.7527 24.2006Z" fill="white"/>
<path d="M118.498 20.0402L112.819 19.0181C113.46 16.6637 114.567 14.9212 116.132 13.7906C117.696 12.66 120.024 12.0947 123.108 12.0947C125.909 12.0947 128 12.4277 129.374 13.1015C130.74 13.7752 131.709 14.627 132.267 15.6646C132.824 16.7026 133.106 18.6 133.106 21.3724L133.015 28.8073C133.015 30.9216 133.114 32.4857 133.312 33.4925C133.511 34.4993 133.885 35.576 134.434 36.7221H128.206C128.046 36.3037 127.84 35.6841 127.603 34.8634C127.504 34.4839 127.428 34.2362 127.382 34.1197C126.313 35.1888 125.168 35.9864 123.947 36.5206C122.726 37.0551 121.429 37.3258 120.047 37.3258C117.612 37.3258 115.689 36.6525 114.284 35.3049C112.88 33.9651 112.178 32.2611 112.178 30.2013C112.178 28.8457 112.498 27.6301 113.14 26.5614C113.781 25.5003 114.674 24.6793 115.834 24.114C116.986 23.5487 118.65 23.053 120.826 22.6272C123.756 22.0696 125.794 21.5428 126.924 21.0628V20.4198C126.924 19.1807 126.626 18.2978 126.031 17.7636C125.428 17.2371 124.298 16.9737 122.642 16.9737C121.52 16.9737 120.65 17.1983 120.024 17.6551C119.391 18.1043 118.887 18.9019 118.498 20.0402ZM126.924 25.1981C126.123 25.4692 124.848 25.7945 123.1 26.1741C121.36 26.5537 120.215 26.9252 119.681 27.2817C118.864 27.8778 118.452 28.6211 118.452 29.5275C118.452 30.4259 118.78 31.1924 119.437 31.843C120.093 32.4937 120.925 32.8187 121.94 32.8187C123.069 32.8187 124.153 32.4395 125.183 31.6881C125.939 31.1074 126.443 30.4101 126.68 29.5737C126.84 29.0318 126.924 27.9939 126.924 26.4683V25.1981Z" fill="white"/>
<path d="M145.576 3.44922V36.7195H139.302V3.44922H145.576Z" fill="white"/>
<path fill-rule="evenodd" clip-rule="evenodd" d="M19.0407 31.5688C22.8129 33.0973 28.8 31.5013 31.5146 29.5643C34.5022 27.4324 36.522 24.1376 36.5748 18.7236L18.7363 18.7031L18.7714 23.8063L30.3389 23.8082C29.7688 26.0328 27.4156 28.2139 26.0406 29.2027C23.864 30.7675 22.1836 31.2017 19.0407 31.5688Z" fill="white"/>
<path fill-rule="evenodd" clip-rule="evenodd" d="M6.45312 5.75144C8.81171 4.84539 9.85305 4.08077 12.8125 3.72905C17.3985 3.18425 22.4345 4.72229 25.7662 7.60091C28.4736 9.94022 28.4176 10.8374 29.6753 12.2333L34.0732 9.71636C33.7132 8.72202 32.3462 7.0191 31.8258 6.44133C27.0549 1.14499 19.3686 -0.673698 12.6395 1.78176C9.61799 2.88418 8.48638 3.91516 6.45312 5.75144Z" fill="white"/>
<path fill-rule="evenodd" clip-rule="evenodd" d="M6.1234 19.1924C4.84807 21.5127 5.86306 27.1878 6.84376 29.5022C7.9891 32.205 10.0534 34.3596 12.6308 35.5419C17.1656 37.6219 22.7768 37.0543 27.2202 34.6198C28.0814 34.1479 30.1497 32.9037 30.6851 32.0093C29.3477 32.4058 28.35 33.0176 26.8053 33.4016C19.9109 35.114 12.8792 32.412 8.8528 26.6943C7.36154 24.5767 6.42743 22.396 6.1234 19.1924Z" fill="white"/>
<path fill-rule="evenodd" clip-rule="evenodd" d="M5.67801 30.8442C5.32307 29.5344 4.67637 28.4931 4.30302 26.8855C2.72365 20.0881 5.31007 12.385 11.0234 8.60187C15.3589 5.73058 16.2421 6.65276 18.2743 5.82548C6.92048 3.62356 -1.13665 11.8586 1.44471 23.0675C1.93722 25.2045 3.78884 29.0958 5.28262 30.5313C5.62854 30.8636 5.15011 30.5364 5.67801 30.8442Z" fill="white"/>
</svg>
