<?xml version="1.0" encoding="UTF-8" standalone="no"?>
<!DOCTYPE svg PUBLIC "-//W3C//DTD SVG 1.1//EN" "http://www.w3.org/Graphics/SVG/1.1/DTD/svg11.dtd">
<svg width="100%" height="100%" viewBox="0 0 3508 625" version="1.1" xmlns="http://www.w3.org/2000/svg" xmlns:xlink="http://www.w3.org/1999/xlink" xml:space="preserve" xmlns:serif="http://www.serif.com/" style="fill-rule:evenodd;clip-rule:evenodd;stroke-miterlimit:22.9256;">
    <g transform="matrix(4.16667,0,0,4.16667,0.406854,-794.628)">
        <g id="Livello-1" serif:id="Livello 1">
            <g>
                <g transform="matrix(0,-1,-1,0,511.766,444.95)">
                    <rect x="135.316" y="322.358" width="90.809" height="17.375" style="fill:rgb(26,26,24);"/>
                </g>
                <g transform="matrix(1,0,0,1,0,-41.5775)">
                    <path d="M203.211,317.497C203.211,311.705 204.627,306.103 207.481,300.692C210.335,295.259 214.372,291.137 219.593,288.284C224.814,285.43 230.627,283.993 237.074,283.993C247.031,283.993 255.169,287.227 261.531,293.695C267.894,300.185 271.064,308.344 271.064,318.236C271.064,328.214 267.852,336.479 261.447,343.031C255.021,349.584 246.946,352.86 237.201,352.86C231.177,352.86 225.428,351.487 219.953,348.76C214.499,346.033 210.335,342.038 207.481,336.753C204.627,331.49 203.211,325.064 203.211,317.497ZM221.094,318.427C221.094,324.958 222.637,329.968 225.723,333.435C228.831,336.922 232.635,338.656 237.18,338.656C241.704,338.656 245.508,336.922 248.573,333.435C251.639,329.968 253.182,324.916 253.182,318.3C253.182,311.853 251.639,306.885 248.573,303.419C245.508,299.931 241.704,298.197 237.18,298.197C232.635,298.197 228.831,299.931 225.723,303.419C222.637,306.885 221.094,311.895 221.094,318.427" style="fill:rgb(26,26,24);fill-rule:nonzero;"/>
                </g>
                <g transform="matrix(1,0,0,1,0,-65.1677)">
                    <path d="M283.98,374.802L283.98,283.993L301.355,283.993L301.355,316.757C306.725,310.648 313.066,307.583 320.422,307.583C328.433,307.583 335.049,310.479 340.292,316.292C345.534,322.105 348.155,330.454 348.155,341.34C348.155,352.586 345.492,361.252 340.144,367.34C334.796,373.407 328.285,376.451 320.655,376.451C316.892,376.451 313.193,375.478 309.536,373.555C305.879,371.61 302.729,368.82 300.087,365.142L300.087,374.802L283.98,374.802ZM301.102,340.622C301.102,347.449 302.18,352.522 304.336,355.778C307.359,360.428 311.354,362.753 316.364,362.753C320.211,362.753 323.487,361.104 326.214,357.807C328.919,354.509 330.272,349.309 330.272,342.228C330.272,334.682 328.898,329.249 326.172,325.909C323.445,322.57 319.957,320.9 315.687,320.9C311.502,320.9 308.035,322.527 305.266,325.783C302.497,329.038 301.102,333.984 301.102,340.622" style="fill:rgb(26,26,24);fill-rule:nonzero;"/>
                </g>
                <g transform="matrix(1,0,0,1,0,-41.5775)">
                    <path d="M375.149,305.68L359.422,302.89C361.197,296.464 364.263,291.708 368.596,288.622C372.929,285.536 379.376,283.993 387.916,283.993C395.674,283.993 401.465,284.902 405.27,286.741C409.054,288.58 411.738,290.905 413.282,293.737C414.825,296.57 415.607,301.749 415.607,309.316L415.353,329.609C415.353,335.38 415.628,339.649 416.178,342.397C416.727,345.145 417.763,348.084 419.285,351.212L402.036,351.212C401.592,350.07 401.022,348.379 400.366,346.139C400.091,345.103 399.88,344.427 399.753,344.109C396.794,347.027 393.623,349.204 390.241,350.662C386.859,352.121 383.266,352.86 379.439,352.86C372.696,352.86 367.37,351.022 363.48,347.344C359.591,343.687 357.646,339.036 357.646,333.414C357.646,329.714 358.534,326.396 360.31,323.479C362.085,320.583 364.558,318.342 367.771,316.799C370.963,315.256 375.571,313.903 381.596,312.741C389.713,311.219 395.357,309.781 398.485,308.471L398.485,306.716C398.485,303.334 397.661,300.924 396.012,299.466C394.342,298.029 391.213,297.31 386.626,297.31C383.519,297.31 381.109,297.923 379.376,299.17C377.622,300.396 376.227,302.573 375.149,305.68ZM398.485,319.758C396.266,320.498 392.735,321.386 387.895,322.422C383.075,323.458 379.905,324.472 378.425,325.445C376.163,327.072 375.022,329.101 375.022,331.575C375.022,334.027 375.931,336.119 377.749,337.895C379.566,339.671 381.87,340.558 384.682,340.558C387.81,340.558 390.812,339.523 393.665,337.472C395.758,335.887 397.153,333.984 397.809,331.701C398.252,330.222 398.485,327.389 398.485,323.225L398.485,319.758Z" style="fill:rgb(26,26,24);fill-rule:nonzero;"/>
                </g>
                <g transform="matrix(0,-1,-1,0,772.483,705.667)">
                    <rect x="396.033" y="322.358" width="90.809" height="17.375" style="fill:rgb(26,26,24);"/>
                </g>
                <g transform="matrix(1,0,0,1,0,-35.0144)">
                    <path d="M99.689,330.617C110.136,334.789 126.717,330.433 134.235,325.146C142.509,319.327 148.103,310.334 148.249,295.557L98.846,295.501L98.943,309.43L130.979,309.435C129.4,315.507 122.883,321.46 119.075,324.159C113.047,328.43 108.393,329.615 99.689,330.617" style="fill:rgb(26,26,24);"/>
                </g>
                <g transform="matrix(1,0,0,1,0,-144.897)">
                    <path d="M64.823,370.009C71.355,367.536 74.239,365.449 82.435,364.489C95.136,363.002 109.083,367.2 118.31,375.057C125.808,381.442 125.653,383.891 129.136,387.701L141.316,380.831C140.319,378.117 136.533,373.469 135.092,371.892C121.879,357.436 100.592,352.472 81.956,359.174C73.588,362.183 70.454,364.997 64.823,370.009" style="fill:rgb(26,26,24);"/>
                </g>
                <g transform="matrix(1,0,0,1,0,-21.3984)">
                    <path d="M63.878,283.186C60.346,289.519 63.157,305.009 65.873,311.326C69.045,318.703 74.762,324.584 81.9,327.811C94.459,333.488 109.999,331.939 122.305,325.294C124.69,324.006 130.418,320.61 131.901,318.169C128.197,319.251 125.434,320.921 121.156,321.969C102.062,326.643 82.588,319.268 71.437,303.662C67.307,297.882 64.72,291.93 63.878,283.186" style="fill:rgb(26,26,24);"/>
                </g>
                <g transform="matrix(1,0,0,1,0,-82.3606)">
                    <path d="M62.694,375.94C61.711,372.365 59.92,369.523 58.886,365.135C54.512,346.582 61.675,325.557 77.498,315.231C89.505,307.394 91.951,309.911 97.579,307.653C66.135,301.643 43.821,324.12 50.97,354.714C52.334,360.547 57.462,371.168 61.599,375.086C62.557,375.993 61.232,375.1 62.694,375.94" style="fill:rgb(26,26,24);"/>
                </g>
                <g transform="matrix(1,0,0,1,0,-52.882)">
                    <path d="M522.231,371.126C516.657,370.595 511.481,368.98 506.704,366.282C501.926,363.584 497.679,360.155 493.963,355.997C491.928,353.785 490.181,351.352 488.721,348.697C487.261,346.043 486,343.3 484.938,340.469C482.992,335.161 482.063,329.786 482.152,324.344C482.24,318.903 483.125,313.705 484.806,308.75C486.487,303.796 488.898,299.195 492.039,294.948C495.18,290.701 498.873,287.14 503.12,284.265C507.367,281.389 512.079,279.332 517.255,278.093C522.43,276.855 527.938,276.678 533.777,277.563C540.679,278.624 546.916,281.323 552.49,285.658C558.064,289.993 562.488,295.213 565.762,301.318C565.939,301.584 566.248,302.203 566.691,303.176C567.133,304.15 567.443,304.857 567.62,305.3C567.62,305.477 567.708,305.742 567.885,306.096C568.062,306.45 568.151,306.716 568.151,306.892C567.708,307.069 567.221,307.335 566.691,307.689C566.16,308.042 565.673,308.131 565.231,307.954C563.815,304.592 562.2,301.517 560.387,298.73C558.573,295.943 556.339,293.267 553.685,290.701C548.73,286.101 543.001,283.026 536.498,281.478C529.995,279.929 523.47,279.951 516.923,281.544C511.614,282.871 506.726,285.304 502.258,288.843C497.79,292.382 494.229,296.541 491.574,301.318C488.831,306.273 487.04,311.405 486.199,316.713C485.359,322.022 485.403,327.198 486.332,332.241C487.261,337.284 488.964,342.039 491.442,346.508C493.919,350.976 497.06,354.846 500.864,358.12C504.669,361.394 509.048,363.937 514.003,365.751C518.958,367.565 524.355,368.295 530.194,367.941C534.176,367.764 538.024,366.879 541.74,365.287C545.456,363.694 548.885,361.593 552.026,358.983C555.166,356.373 557.887,353.387 560.188,350.025C562.488,346.662 564.257,343.123 565.496,339.407L568.416,340.469L568.416,340.735C567.708,342.858 566.845,344.915 565.828,346.906C564.81,348.896 563.682,350.821 562.444,352.679C560.143,355.952 557.489,358.828 554.481,361.305C551.473,363.783 548.221,365.795 544.727,367.344C541.232,368.892 537.582,369.998 533.777,370.662C529.973,371.325 526.124,371.48 522.231,371.126" style="fill:rgb(26,26,24);fill-rule:nonzero;"/>
                </g>
                <g transform="matrix(1,0,0,1,0,-53.6782)">
                    <path d="M586.731,277.297L586.731,368.472L626.678,368.472L626.678,371.657L583.28,371.657L583.28,277.297L586.731,277.297Z" style="fill:rgb(26,26,24);fill-rule:nonzero;"/>
                </g>
                <g transform="matrix(1,0,0,1,0,-50.5817)">
                    <path d="M664.899,370.153C661.537,369.622 658.33,368.582 655.278,367.034C652.225,365.486 649.438,363.584 646.917,361.327C644.395,359.071 642.227,356.505 640.414,353.63C638.6,350.754 637.251,347.724 636.366,344.539C636.277,344.451 636.189,344.185 636.1,343.743C636.012,343.3 635.923,342.814 635.835,342.283C635.746,341.752 635.658,341.243 635.569,340.757C635.481,340.27 635.393,339.938 635.304,339.761C635.304,339.496 635.26,339.12 635.171,338.633C635.083,338.147 635.039,337.815 635.039,337.638L635.039,274.997L638.224,274.997L638.224,335.78C638.224,338.7 638.755,341.708 639.816,344.805C640.878,347.901 642.294,350.644 644.063,353.033C646.364,356.218 649.04,358.872 652.092,360.995C655.145,363.119 658.374,364.712 661.781,365.773C665.187,366.835 668.682,367.344 672.265,367.299C675.848,367.255 679.321,366.658 682.683,365.508C686.045,364.358 689.208,362.632 692.172,360.332C695.136,358.032 697.68,355.156 699.803,351.706C701.484,348.874 702.723,346.043 703.519,343.212C703.696,342.504 703.962,341.487 704.316,340.159C704.669,338.832 704.847,338.08 704.847,337.903L704.847,274.997L708.032,274.997L708.032,336.311C708.032,338.08 707.81,339.85 707.368,341.619C706.926,343.389 706.439,345.07 705.908,346.662C704.404,350.909 702.236,354.647 699.405,357.877C696.574,361.106 693.322,363.76 689.651,365.84C685.979,367.919 682.019,369.334 677.773,370.086C673.526,370.839 669.235,370.861 664.899,370.153" style="fill:rgb(26,26,24);fill-rule:nonzero;"/>
                </g>
                <g transform="matrix(1,0,0,1,0,-53.4129)">
                    <path d="M746.784,277.032C748.908,277.032 751.098,277.275 753.354,277.762C755.61,278.248 757.755,278.89 759.79,279.686C762.356,280.659 764.767,281.831 767.023,283.203C769.279,284.574 771.292,286.322 773.062,288.445C774.389,290.037 775.34,291.785 775.915,293.687C776.49,295.589 776.778,297.536 776.778,299.527C776.778,301.518 776.557,303.53 776.114,305.565C775.672,307.6 775.141,309.547 774.522,311.405C774.522,311.582 774.455,311.803 774.322,312.068C774.19,312.334 774.123,312.555 774.123,312.732C774.123,312.82 774.101,312.887 774.057,312.931C774.013,312.975 773.991,313.041 773.991,313.13L773.858,313.263L770.407,313.263L770.407,312.997C771.735,309.458 772.641,306.251 773.128,303.375C773.615,300.5 773.504,297.868 772.796,295.479C772.088,293.09 770.783,290.923 768.881,288.976C766.979,287.029 764.302,285.26 760.852,283.667C758.286,282.429 755.565,281.544 752.69,281.013C749.814,280.482 746.961,280.217 744.13,280.217L727.54,280.217L727.54,371.657L724.355,371.657L724.355,277.032L746.784,277.032ZM786.2,363.694C787.351,359.978 788.169,356.129 788.656,352.148C789.142,348.167 789.009,344.34 788.257,340.668C787.505,336.996 786.023,333.657 783.812,330.648C781.6,327.64 778.414,325.251 774.256,323.482C770.894,322.066 767.355,321.203 763.639,320.894C759.923,320.584 756.251,320.518 752.624,320.695L752.624,317.509C757.313,317.333 761.958,317.532 766.559,318.107C771.159,318.682 775.495,320.12 779.565,322.42C783.634,324.72 786.621,327.728 788.523,331.445C790.425,335.161 791.553,339.164 791.907,343.455C792.261,347.746 792.018,352.104 791.177,356.527C790.337,360.951 789.297,365.021 788.058,368.737C787.881,369.268 787.66,369.799 787.395,370.33C787.218,370.684 787.085,371.038 786.997,371.392L783.546,371.392C783.634,371.126 783.834,370.617 784.143,369.865C784.453,369.113 784.741,368.339 785.006,367.543C785.271,366.746 785.515,365.972 785.736,365.22C785.957,364.468 786.112,363.96 786.2,363.694" style="fill:rgb(26,26,24);fill-rule:nonzero;"/>
                </g>
                <g transform="matrix(1,0,0,1,0,-52.882)">
                    <path d="M522.231,371.126C516.657,370.595 511.481,368.98 506.704,366.282C501.926,363.584 497.679,360.155 493.963,355.997C491.928,353.785 490.181,351.352 488.721,348.697C487.261,346.043 486,343.3 484.938,340.469C482.992,335.161 482.063,329.786 482.152,324.344C482.24,318.903 483.125,313.705 484.806,308.75C486.487,303.796 488.898,299.195 492.039,294.948C495.18,290.701 498.873,287.14 503.12,284.265C507.367,281.389 512.079,279.332 517.255,278.093C522.43,276.855 527.938,276.678 533.777,277.563C540.679,278.624 546.916,281.323 552.49,285.658C558.064,289.993 562.488,295.213 565.762,301.318C565.939,301.584 566.248,302.203 566.691,303.176C567.133,304.15 567.443,304.857 567.62,305.3C567.62,305.477 567.708,305.742 567.885,306.096C568.062,306.45 568.151,306.716 568.151,306.892C567.708,307.069 567.221,307.335 566.691,307.689C566.16,308.042 565.673,308.131 565.231,307.954C563.815,304.592 562.2,301.517 560.387,298.73C558.573,295.943 556.339,293.267 553.685,290.701C548.73,286.101 543.001,283.026 536.498,281.478C529.995,279.929 523.47,279.951 516.923,281.544C511.614,282.871 506.726,285.304 502.258,288.843C497.79,292.382 494.229,296.541 491.574,301.318C488.831,306.273 487.04,311.405 486.199,316.713C485.359,322.022 485.403,327.198 486.332,332.241C487.261,337.284 488.964,342.039 491.442,346.508C493.919,350.976 497.06,354.846 500.864,358.12C504.669,361.394 509.048,363.937 514.003,365.751C518.958,367.565 524.355,368.295 530.194,367.941C534.176,367.764 538.024,366.879 541.74,365.287C545.456,363.694 548.885,361.593 552.026,358.983C555.166,356.373 557.887,353.387 560.188,350.025C562.488,346.662 564.257,343.123 565.496,339.407L568.416,340.469L568.416,340.735C567.708,342.858 566.845,344.915 565.828,346.906C564.81,348.896 563.682,350.821 562.444,352.679C560.143,355.952 557.489,358.828 554.481,361.305C551.473,363.783 548.221,365.795 544.727,367.344C541.232,368.892 537.582,369.998 533.777,370.662C529.973,371.325 526.124,371.48 522.231,371.126Z" style="fill:none;fill-rule:nonzero;stroke:rgb(26,26,24);stroke-width:0.22px;"/>
                </g>
                <g transform="matrix(1,0,0,1,0,-53.6782)">
                    <path d="M586.731,277.297L586.731,368.472L626.678,368.472L626.678,371.657L583.28,371.657L583.28,277.297L586.731,277.297Z" style="fill:none;fill-rule:nonzero;stroke:rgb(26,26,24);stroke-width:0.22px;"/>
                </g>
                <g transform="matrix(1,0,0,1,0,-50.5817)">
                    <path d="M664.899,370.153C661.537,369.622 658.33,368.582 655.278,367.034C652.225,365.486 649.438,363.584 646.917,361.327C644.395,359.071 642.227,356.505 640.414,353.63C638.6,350.754 637.251,347.724 636.366,344.539C636.277,344.451 636.189,344.185 636.1,343.743C636.012,343.3 635.923,342.814 635.835,342.283C635.746,341.752 635.658,341.243 635.569,340.757C635.481,340.27 635.393,339.938 635.304,339.761C635.304,339.496 635.26,339.12 635.171,338.633C635.083,338.147 635.039,337.815 635.039,337.638L635.039,274.997L638.224,274.997L638.224,335.78C638.224,338.7 638.755,341.708 639.816,344.805C640.878,347.901 642.294,350.644 644.063,353.033C646.364,356.218 649.04,358.872 652.092,360.995C655.145,363.119 658.374,364.712 661.781,365.773C665.187,366.835 668.682,367.344 672.265,367.299C675.848,367.255 679.321,366.658 682.683,365.508C686.045,364.358 689.208,362.632 692.172,360.332C695.136,358.032 697.68,355.156 699.803,351.706C701.484,348.874 702.723,346.043 703.519,343.212C703.696,342.504 703.962,341.487 704.316,340.159C704.669,338.832 704.847,338.08 704.847,337.903L704.847,274.997L708.032,274.997L708.032,336.311C708.032,338.08 707.81,339.85 707.368,341.619C706.926,343.389 706.439,345.07 705.908,346.662C704.404,350.909 702.236,354.647 699.405,357.877C696.574,361.106 693.322,363.76 689.651,365.84C685.979,367.919 682.019,369.334 677.773,370.086C673.526,370.839 669.235,370.861 664.899,370.153Z" style="fill:none;fill-rule:nonzero;stroke:rgb(26,26,24);stroke-width:0.22px;"/>
                </g>
                <g transform="matrix(1,0,0,1,0,-53.4129)">
                    <path d="M746.784,277.032C748.908,277.032 751.098,277.275 753.354,277.762C755.61,278.248 757.755,278.89 759.79,279.686C762.356,280.659 764.767,281.831 767.023,283.203C769.279,284.574 771.292,286.322 773.062,288.445C774.389,290.037 775.34,291.785 775.915,293.687C776.49,295.589 776.778,297.536 776.778,299.527C776.778,301.518 776.557,303.53 776.114,305.565C775.672,307.6 775.141,309.547 774.522,311.405C774.522,311.582 774.455,311.803 774.322,312.068C774.19,312.334 774.123,312.555 774.123,312.732C774.123,312.82 774.101,312.887 774.057,312.931C774.013,312.975 773.991,313.041 773.991,313.13L773.858,313.263L770.407,313.263L770.407,312.997C771.735,309.458 772.641,306.251 773.128,303.375C773.615,300.5 773.504,297.868 772.796,295.479C772.088,293.09 770.783,290.923 768.881,288.976C766.979,287.029 764.302,285.26 760.852,283.667C758.286,282.429 755.565,281.544 752.69,281.013C749.814,280.482 746.961,280.217 744.13,280.217L727.54,280.217L727.54,371.657L724.355,371.657L724.355,277.032L746.784,277.032ZM786.2,363.694C787.351,359.978 788.169,356.129 788.656,352.148C789.142,348.167 789.009,344.34 788.257,340.668C787.505,336.996 786.023,333.657 783.812,330.648C781.6,327.64 778.414,325.251 774.256,323.482C770.894,322.066 767.355,321.203 763.639,320.894C759.923,320.584 756.251,320.518 752.624,320.695L752.624,317.509C757.313,317.333 761.958,317.532 766.559,318.107C771.159,318.682 775.495,320.12 779.565,322.42C783.634,324.72 786.621,327.728 788.523,331.445C790.425,335.161 791.553,339.164 791.907,343.455C792.261,347.746 792.018,352.104 791.177,356.527C790.337,360.951 789.297,365.021 788.058,368.737C787.881,369.268 787.66,369.799 787.395,370.33C787.218,370.684 787.085,371.038 786.997,371.392L783.546,371.392C783.634,371.126 783.834,370.617 784.143,369.865C784.453,369.113 784.741,368.339 785.006,367.543C785.271,366.746 785.515,365.972 785.736,365.22C785.957,364.468 786.112,363.96 786.2,363.694Z" style="fill:none;fill-rule:nonzero;stroke:rgb(26,26,24);stroke-width:0.22px;"/>
                </g>
            </g>
        </g>
    </g>
</svg>
