<svg width="20" height="20" viewBox="0 0 20 20" fill="none" xmlns="http://www.w3.org/2000/svg">
<path fill-rule="evenodd" clip-rule="evenodd" d="M5.67 -0.000793457H14.34C17.73 -0.000793457 20 2.37921 20 5.91921V14.0902C20 17.6202 17.73 19.9992 14.34 19.9992H5.67C2.28 19.9992 0 17.6202 0 14.0902V5.91921C0 2.37921 2.28 -0.000793457 5.67 -0.000793457ZM9.99731 14.249C10.4774 14.2497 10.8663 13.8608 10.8663 13.38V10.8627L13.3843 10.862C13.8645 10.8627 14.2605 10.4667 14.2605 9.98585C14.2612 9.50431 13.8723 9.1154 13.3836 9.10904L10.8741 9.1154L10.8734 6.59881C10.867 6.1102 10.4781 5.72129 9.9966 5.722C9.51577 5.722 9.11979 6.11798 9.12049 6.5981L9.11979 9.11611L6.60956 9.10904C6.12165 9.11611 5.73275 9.50502 5.73345 9.98514C5.73345 10.2256 5.83174 10.4525 5.9873 10.6081C6.14994 10.7707 6.36985 10.862 6.61027 10.862L9.11979 10.8697L9.12757 13.3793C9.11979 13.6274 9.21878 13.8396 9.37435 13.9951C9.53698 14.1578 9.75689 14.249 9.99731 14.249Z" fill="currentColor"/>
</svg>
