<svg width="19" height="20" viewBox="0 0 19 20" fill="none" xmlns="http://www.w3.org/2000/svg">
    <g clip-path="url(#clip0_1150:4406)">
        <path d="M4.82914 0.0274487C4.32472 0.0588207 3.75774 0.141174 3.38235 0.235292C2.60813 0.43137 2.15845 0.690193 1.57974 1.27059C0.375383 2.48627 0.246345 3.9451 1.21999 5.36078C1.47025 5.72549 2.11935 6.34902 2.53383 6.62745C2.78409 6.79608 2.83883 6.84706 2.788 6.86666C2.01768 7.1451 1.59929 7.35294 1.20435 7.64314C0.707753 8.01176 0.340191 8.56863 0.148589 9.23529C0.0742948 9.50196 0.0586538 9.63921 0.0625641 10.1569C0.0625641 10.8314 0.121218 11.1451 0.355832 11.7098C0.680381 12.4941 1.38813 13.2118 2.22101 13.6157C2.57294 13.7804 3.08909 13.9529 3.46056 14.0196C3.91806 14.102 5.08331 14.1569 6.50272 14.1569H7.74227V13.9686C7.73836 13.3647 7.58586 12.9647 7.30041 12.8157C7.14791 12.7373 7.06189 12.7294 6.11952 12.702C4.92299 12.6706 4.5828 12.6274 3.83203 12.4039C2.92486 12.1373 2.34223 11.5686 2.13108 10.749C2.04896 10.4314 2.04896 9.86274 2.12717 9.51764C2.35787 8.52549 3.093 8.00392 4.49677 7.84313C4.96209 7.78823 12.6144 7.76078 13.5099 7.80784C14.1981 7.84313 14.6556 7.93725 14.9879 8.10196C15.4767 8.34902 15.77 8.66667 15.9538 9.15686C16.0711 9.47451 16.1063 10.2078 16.0202 10.6157C15.8443 11.4431 15.2421 12.0745 14.3897 12.3333C14.0534 12.4314 13.4317 12.502 12.4737 12.5529C11.5821 12.5961 10.1549 12.5922 10.108 12.5412C10.0923 12.5294 10.0649 12.051 10.0454 11.4824C9.97892 9.51372 9.90854 9.05098 9.63482 8.7451C9.4354 8.52157 9.15386 8.43137 8.61425 8.40392L8.17239 8.38039V11.5137V14.651L8.35226 14.8235C8.98572 15.4431 9.71303 16.5137 9.93591 17.1569C9.98674 17.298 9.99456 17.149 10.0102 15.7451L10.0298 14.1765L10.8079 14.1647C11.7542 14.1529 11.9145 14.1882 12.2078 14.4627C12.372 14.6196 13.9674 16.7765 15.594 19.051C16.1219 19.7882 16.2392 19.8941 16.5755 19.9608C16.8179 20.0078 18.5736 20.0157 18.5736 19.9686C18.5736 19.9216 18.4211 19.7137 16.3448 16.898C15.2577 15.4275 14.3467 14.1922 14.3232 14.1529C14.2802 14.0941 14.3545 14.0588 15.1561 13.7843C16.0789 13.4627 16.3409 13.3333 16.7202 13.0039C18.3038 11.6235 18.3586 8.98039 16.8375 7.37647C16.4191 6.94117 15.8443 6.58823 15.3125 6.45098C14.7455 6.30588 14.5031 6.30196 9.75604 6.29804C4.70792 6.29412 4.80568 6.29804 4.0862 6.07843C3.0578 5.76078 2.49473 4.92941 2.54947 3.80784C2.58467 3.12549 2.84665 2.59216 3.3237 2.23529C3.88286 1.81176 4.58671 1.68627 6.43234 1.68627H7.449L7.15182 1.55686C6.51836 1.27843 5.9983 0.929409 5.34138 0.337252C5.00901 0.0431347 4.97382 0.0196056 4.82914 0.0274487Z"
              fill="currentColor"/>
        <path d="M5.24366 0.0273471C5.24757 0.0822492 5.92013 0.662642 6.24859 0.897935C6.85077 1.32931 7.63282 1.68617 7.97301 1.68617H8.16461L8.18807 2.04696C8.1998 2.24696 8.21935 2.80774 8.23108 3.29401C8.27019 4.78421 8.34057 5.15676 8.6182 5.43519C8.81762 5.63911 9.04441 5.7097 9.59576 5.74892L10.0102 5.77637V5.62343C10.0102 5.53715 10.022 4.23911 10.0376 2.73323L10.0611 -0.000103951H7.65237C6.32289 -0.000103951 5.23975 0.0116611 5.24366 0.0273471Z"
              fill="currentColor"/>
        <path d="M8.1333 17.4391V19.9607H9.07175H10.0102V18.8705C10.0102 17.6352 10.0141 17.647 9.67784 16.9803C9.37284 16.3725 8.96227 15.8038 8.39529 15.196L8.13721 14.9215L8.1333 17.4391Z"
              fill="currentColor"/>
    </g>

</svg>
