<svg width="104" height="104" viewBox="0 0 104 104" fill="none" xmlns="http://www.w3.org/2000/svg">
<g filter="url(#filter0_d_824:3667)">
<circle cx="52" cy="42" r="30" fill="url(#paint0_linear_824:3667)"/>
</g>
<path fill-rule="evenodd" clip-rule="evenodd" d="M52.0798 54.8642C55.852 56.3927 61.839 54.7968 64.5536 52.8598C67.5412 50.7278 69.5611 47.433 69.6138 42.0191L51.7754 41.9985L51.8104 47.1018L63.378 47.1036C62.8078 49.3283 60.4547 51.5093 59.0797 52.4981C56.9031 54.0629 55.2226 54.4971 52.0798 54.8642Z" fill="#F7F7F7"/>
<path fill-rule="evenodd" clip-rule="evenodd" d="M39.4922 29.0473C41.8508 28.1413 42.8921 27.3767 45.8515 27.0249C50.4376 26.4801 55.4736 28.0182 58.8053 30.8968C61.5126 33.2361 61.4567 34.1334 62.7143 35.5293L67.1123 33.0123C66.7523 32.0179 65.3852 30.315 64.8649 29.7372C60.094 24.4409 52.4077 22.6222 45.6786 25.0777C42.6571 26.1801 41.5254 27.2111 39.4922 29.0473Z" fill="#F7F7F7"/>
<path fill-rule="evenodd" clip-rule="evenodd" d="M39.1625 42.4878C37.8871 44.808 38.9021 50.4832 39.8828 52.7976C41.0282 55.5003 43.0925 57.655 45.6698 58.8373C50.2046 60.9172 55.8158 60.3497 60.2593 57.9151C61.1205 57.4432 63.1887 56.199 63.7242 55.3047C62.3868 55.7011 61.3891 56.313 59.8444 56.6969C52.9499 58.4094 45.9183 55.7073 41.8919 49.9897C40.4006 47.872 39.4665 45.6914 39.1625 42.4878Z" fill="#F7F7F7"/>
<path fill-rule="evenodd" clip-rule="evenodd" d="M38.7171 54.1396C38.3621 52.8298 37.7154 51.7886 37.3421 50.1809C35.7627 43.3835 38.3491 35.6805 44.0625 31.8973C48.398 29.026 49.2812 29.9482 51.3133 29.1209C39.9595 26.919 31.9024 35.154 34.4838 46.3629C34.9763 48.5 36.8279 52.3912 38.3217 53.8267C38.6676 54.159 38.1892 53.8318 38.7171 54.1396Z" fill="#F7F7F7"/>
<defs>
<filter id="filter0_d_824:3667" x="0" y="0" width="104" height="104" filterUnits="userSpaceOnUse" color-interpolation-filters="sRGB">
<feFlood flood-opacity="0" result="BackgroundImageFix"/>
<feColorMatrix in="SourceAlpha" type="matrix" values="0 0 0 0 0 0 0 0 0 0 0 0 0 0 0 0 0 0 127 0" result="hardAlpha"/>
<feOffset dy="10"/>
<feGaussianBlur stdDeviation="11"/>
<feColorMatrix type="matrix" values="0 0 0 0 0.690196 0 0 0 0 0.580392 0 0 0 0 0.364706 0 0 0 0.3 0"/>
<feBlend mode="normal" in2="BackgroundImageFix" result="effect1_dropShadow_824:3667"/>
<feBlend mode="normal" in="SourceGraphic" in2="effect1_dropShadow_824:3667" result="shape"/>
</filter>
<linearGradient id="paint0_linear_824:3667" x1="82" y1="72" x2="17.8531" y2="67.1792" gradientUnits="userSpaceOnUse">
<stop stop-color="#AB8E54"/>
<stop offset="1" stop-color="#D7C7A6"/>
<stop offset="1" stop-color="#F7F7F7"/>
</linearGradient>
</defs>
</svg>
