<svg width="60" height="60" viewBox="0 0 60 60" fill="none" xmlns="http://www.w3.org/2000/svg">
    <circle cx="30" cy="30" r="30" fill="url(#paint0_linear_2216_6116)"/>
    <path fill-rule="evenodd" clip-rule="evenodd"
          d="M30.0798 42.8637C33.852 44.3922 39.839 42.7963 42.5536 40.8593C45.5412 38.7273 47.5611 35.4325 47.6138 30.0186L29.7754 29.998L29.8104 35.1013L41.378 35.1031C40.8078 37.3278 38.4547 39.5088 37.0797 40.4977C34.9031 42.0624 33.2226 42.4966 30.0798 42.8637Z"
          fill="#F7F7F7"/>
    <path fill-rule="evenodd" clip-rule="evenodd"
          d="M17.4922 17.0473C19.8508 16.1413 20.8921 15.3767 23.8515 15.0249C28.4376 14.4801 33.4736 16.0182 36.8053 18.8968C39.5126 21.2361 39.4567 22.1334 40.7143 23.5293L45.1123 21.0123C44.7523 20.0179 43.3852 18.315 42.8649 17.7372C38.094 12.4409 30.4077 10.6222 23.6786 13.0777C20.6571 14.1801 19.5254 15.2111 17.4922 17.0473Z"
          fill="#F7F7F7"/>
    <path fill-rule="evenodd" clip-rule="evenodd"
          d="M17.1625 30.4883C15.8871 32.8085 16.9021 38.4837 17.8828 40.7981C19.0282 43.5008 21.0925 45.6555 23.6698 46.8378C28.2046 48.9177 33.8158 48.3502 38.2593 45.9156C39.1205 45.4437 41.1887 44.1995 41.7242 43.3052C40.3868 43.7016 39.3891 44.3135 37.8444 44.6974C30.9499 46.4099 23.9183 43.7078 19.8919 37.9902C18.4006 35.8725 17.4665 33.6919 17.1625 30.4883Z"
          fill="#F7F7F7"/>
    <path fill-rule="evenodd" clip-rule="evenodd"
          d="M16.7171 42.1401C16.3621 40.8303 15.7154 39.789 15.3421 38.1814C13.7627 31.384 16.3491 23.681 22.0625 19.8978C26.398 17.0265 27.2812 17.9487 29.3133 17.1214C17.9595 14.9195 9.90241 23.1545 12.4838 34.3634C12.9763 36.5005 14.8279 40.3917 16.3217 41.8272C16.6676 42.1595 16.1892 41.8323 16.7171 42.1401Z"
          fill="#F7F7F7"/>
    <defs>
        <linearGradient id="paint0_linear_2216_6116" x1="60" y1="60" x2="-4.14689" y2="55.1792"
                        gradientUnits="userSpaceOnUse">
            <stop stop-color="#AB8E54"/>
            <stop offset="1" stop-color="#D7C7A6"/>
            <stop offset="1" stop-color="#F7F7F7"/>
        </linearGradient>
    </defs>
</svg>
