<svg width="24" height="24" viewBox="0 0 24 24" fill="none" xmlns="http://www.w3.org/2000/svg">
    <path d="M21.4283 2.65032L15.6499 8.4288" stroke="currentColor" stroke-width="1.5" stroke-linecap="round"
          stroke-linejoin="round"/>
    <path d="M16.117 2.66156L21.4288 2.65025L21.4175 7.96204" stroke="currentColor" stroke-width="1.5" stroke-linecap="round"
          stroke-linejoin="round"/>
    <path d="M12 3.25H7.74714C6.20146 3.25 4.82079 3.73324 3.81938 4.66569C2.81194 5.60377 2.25 6.93995 2.25 8.5174V16.4835C2.25 18.0569 2.8123 19.3925 3.81906 20.331C4.82 21.2641 6.20052 21.75 7.74714 21.75H15.2529C16.7984 21.75 18.1791 21.2671 19.1805 20.3348C20.188 19.397 20.75 18.061 20.75 16.4835V13H19.25V16.4835C19.25 17.6904 18.8292 18.6126 18.1585 19.2369C17.4818 19.8669 16.4889 20.25 15.2529 20.25H7.74714C6.51218 20.25 5.51913 19.8652 4.8419 19.2338C4.17049 18.6079 3.75 17.6852 3.75 16.4835V8.5174C3.75 7.31053 4.17084 6.38802 4.84158 5.76347C5.51835 5.1333 6.51125 4.75 7.74714 4.75H12V3.25Z"
          fill="currentColor"/>
</svg>
