<?xml version="1.0" encoding="UTF-8" standalone="no"?><!DOCTYPE svg PUBLIC "-//W3C//DTD SVG 1.1//EN"
        "http://www.w3.org/Graphics/SVG/1.1/DTD/svg11.dtd">
<svg width="100%" height="100%" viewBox="0 0 18 23" version="1.1" xmlns="http://www.w3.org/2000/svg"
     xmlns:xlink="http://www.w3.org/1999/xlink" xml:space="preserve" xmlns:serif="http://www.serif.com/"
     style="fill-rule:evenodd;clip-rule:evenodd;stroke-linejoin:round;stroke-miterlimit:2;">
    <g>
        <path d="M3.981,19.456l3.888,-0c0.854,-0 1.607,-0.059 2.261,-0.177c0.652,-0.118 1.203,-0.321 1.65,-0.609c0.448,-0.288 0.784,-0.677 1.011,-1.165c0.226,-0.488 0.339,-1.098 0.339,-1.828c-0,-0.772 -0.149,-1.397 -0.447,-1.875c-0.299,-0.479 -0.717,-0.852 -1.258,-1.119c-0.539,-0.267 -1.188,-0.45 -1.944,-0.547c-0.756,-0.098 -1.586,-0.148 -2.492,-0.148l-3.008,-0l-0,7.468Zm-0,-16.709l-0,6.866l3.826,-0c0.617,-0 1.204,-0.065 1.759,-0.193c0.556,-0.129 1.039,-0.335 1.451,-0.617c0.411,-0.284 0.738,-0.646 0.979,-1.088c0.241,-0.443 0.362,-0.977 0.362,-1.605c-0,-0.679 -0.128,-1.234 -0.384,-1.666c-0.258,-0.432 -0.6,-0.774 -1.027,-1.027c-0.426,-0.252 -0.919,-0.426 -1.473,-0.524c-0.556,-0.098 -1.137,-0.146 -1.744,-0.146l-3.749,-0Zm-3.981,-0.772c-0,-0.278 0.051,-0.535 0.154,-0.771c0.103,-0.237 0.244,-0.445 0.425,-0.625c0.179,-0.18 0.39,-0.322 0.632,-0.425c0.242,-0.102 0.501,-0.154 0.779,-0.154l7.792,0.016c0.967,-0 1.86,0.138 2.677,0.416c0.817,0.278 1.522,0.661 2.114,1.149c0.591,0.489 1.052,1.073 1.381,1.752c0.329,0.679 0.493,1.425 0.493,2.237c-0,0.607 -0.105,1.186 -0.315,1.736c-0.212,0.55 -0.507,1.046 -0.888,1.489c-0.381,0.442 -0.831,0.82 -1.35,1.134c-0.52,0.314 -1.093,0.532 -1.72,0.655l-0,0.062c0.771,0.114 1.471,0.325 2.098,0.633c0.627,0.309 1.163,0.699 1.605,1.172c0.442,0.474 0.784,1.019 1.025,1.636c0.243,0.617 0.364,1.296 0.364,2.037c-0,0.74 -0.134,1.474 -0.402,2.198c-0.267,0.726 -0.697,1.373 -1.288,1.945c-0.592,0.571 -1.352,1.034 -2.284,1.388c-0.931,0.355 -2.06,0.532 -3.387,0.532l-7.915,-0c-0.278,-0 -0.537,-0.051 -0.779,-0.154c-0.242,-0.102 -0.453,-0.241 -0.632,-0.417c-0.181,-0.175 -0.322,-0.383 -0.425,-0.624c-0.103,-0.242 -0.154,-0.497 -0.154,-0.765l-0,-18.252Z"
              style="fill:currentColor;fill-rule:nonzero;"/>
    </g>
</svg>
