<?xml version="1.0" encoding="UTF-8" standalone="no"?><!DOCTYPE svg PUBLIC "-//W3C//DTD SVG 1.1//EN"
        "http://www.w3.org/Graphics/SVG/1.1/DTD/svg11.dtd">
<svg width="100%" height="100%" viewBox="0 0 29 27" version="1.1" xmlns="http://www.w3.org/2000/svg"
     xmlns:xlink="http://www.w3.org/1999/xlink" xml:space="preserve" xmlns:serif="http://www.serif.com/"
     style="fill-rule:evenodd;clip-rule:evenodd;stroke-linecap:round;stroke-linejoin:round;stroke-miterlimit:10;"><g><path d="M14.396,3.163l-4.073,10.97l8.192,-0l-4.057,-10.97l-0.062,0Zm10.276,16.586c0.072,0.206 0.108,0.412 0.108,0.617c0,0.278 -0.06,0.527 -0.178,0.749c-0.118,0.221 -0.274,0.408 -0.47,0.563c-0.196,0.154 -0.417,0.273 -0.664,0.355c-0.247,0.082 -0.499,0.123 -0.756,0.123c-0.38,-0 -0.738,-0.105 -1.072,-0.316c-0.334,-0.21 -0.558,-0.542 -0.671,-0.995l-1.605,-4.119l-9.89,-0l-1.589,4.119c-0.124,0.463 -0.347,0.797 -0.672,1.003c-0.324,0.206 -0.671,0.308 -1.041,0.308c-0.247,-0 -0.494,-0.041 -0.741,-0.123c-0.246,-0.082 -0.465,-0.201 -0.655,-0.355c-0.191,-0.155 -0.345,-0.339 -0.463,-0.555c-0.118,-0.217 -0.178,-0.458 -0.178,-0.726c0,-0.102 0.008,-0.208 0.024,-0.316c0.015,-0.107 0.049,-0.219 0.1,-0.332l6.48,-16.2c0.258,-0.72 0.514,-1.309 0.771,-1.767c0.258,-0.458 0.533,-0.818 0.826,-1.08c0.293,-0.263 0.612,-0.445 0.956,-0.548c0.345,-0.103 0.728,-0.154 1.15,-0.154c0.433,0 0.823,0.054 1.173,0.162c0.349,0.108 0.671,0.295 0.965,0.563c0.293,0.268 0.567,0.63 0.825,1.088c0.257,0.457 0.509,1.036 0.756,1.736l6.511,16.2Z" style="fill:currentColor;fill-rule:nonzero;"/><path
        d="M1,25.099l27,-0" style="fill:none;fill-rule:nonzero;stroke:currentColor;stroke-width:2px;"/></g></svg>
