<?xml version="1.0" encoding="UTF-8" standalone="no"?><!DOCTYPE svg PUBLIC "-//W3C//DTD SVG 1.1//EN" "http://www.w3.org/Graphics/SVG/1.1/DTD/svg11.dtd"><svg width="100%" height="100%" viewBox="0 0 40 28" version="1.1" xmlns="http://www.w3.org/2000/svg" xmlns:xlink="http://www.w3.org/1999/xlink" xml:space="preserve" xmlns:serif="http://www.serif.com/" style="fill-rule:evenodd;clip-rule:evenodd;stroke-linecap:round;stroke-linejoin:round;stroke-miterlimit:10;"><g><path d="M10.259,2.899l28,0" style="fill:none;fill-rule:nonzero;stroke:currentColor;stroke-width:2px;"/><path d="M10.259,13.899l28,0" style="fill:none;fill-rule:nonzero;stroke:currentColor;stroke-width:2px;"/><path d="M10.259,23.899l28,0" style="fill:none;fill-rule:nonzero;stroke:currentColor;stroke-width:2px;"/><path d="M3.192,-0c-1.761,-0 -3.192,1.432 -3.192,3.191c0,1.761 1.431,3.192 3.192,3.192c1.76,-0 3.191,-1.431 3.191,-3.192c0,-1.759 -1.431,-3.191 -3.191,-3.191" style="fill:currentColor;fill-rule:nonzero;"/><path d="M3.192,10.403c-1.761,-0 -3.192,1.432 -3.192,3.191c0,1.76 1.431,3.192 3.192,3.192c1.76,-0 3.191,-1.432 3.191,-3.192c0,-1.759 -1.431,-3.191 -3.191,-3.191" style="fill:currentColor;fill-rule:nonzero;"/><path d="M3.192,20.982c-1.761,-0 -3.192,1.432 -3.192,3.191c0,1.76 1.431,3.192 3.192,3.192c1.76,-0 3.191,-1.432 3.191,-3.192c0,-1.759 -1.431,-3.191 -3.191,-3.191" style="fill:currentColor;fill-rule:nonzero;"/></g></svg>
