<svg width="100%" height="100%" viewBox="0 0 24 24" version="1.1" xmlns="http://www.w3.org/2000/svg" xmlns:xlink="http://www.w3.org/1999/xlink" xml:space="preserve" xmlns:serif="http://www.serif.com/" style="fill-rule:evenodd;clip-rule:evenodd;stroke-linecap:round;stroke-linejoin:round;">
    <g id="Iconly-Light-Wallet" serif:id="Iconly/Light/Wallet">
        <g id="Wallet">
            <path id="Stroke-1" serif:id="Stroke 1" d="M21.639,14.396L17.591,14.396C16.104,14.395 14.899,13.191 14.898,11.705C14.898,10.218 16.104,9.014 17.591,9.013L21.639,9.013" style="fill:none;fill-rule:nonzero;stroke:currentColor;stroke-width:1.5px;"/>
            <path id="Stroke-3" serif:id="Stroke 3" d="M18.049,11.643L17.737,11.643" style="fill:none;fill-rule:nonzero;stroke:currentColor;stroke-width:1.5px;"/>
            <path id="Stroke-5" serif:id="Stroke 5" d="M7.748,3L16.391,3C19.289,3 21.639,5.35 21.639,8.248L21.639,15.425C21.639,18.323 19.289,20.672 16.391,20.672L7.748,20.672C4.85,20.672 2.5,18.323 2.5,15.425L2.5,8.248C2.5,5.35 4.85,3 7.748,3Z" style="fill:none;stroke:currentColor;stroke-width:1.5px;"/>
            <path id="Stroke-7" serif:id="Stroke 7" d="M7.036,7.538L12.435,7.538" style="fill:none;fill-rule:nonzero;stroke:currentColor;stroke-width:1.5px;"/>
        </g>
    </g>
</svg>
